<svg width="672" height="994" viewBox="0 0 672 994" fill="none" xmlns="http://www.w3.org/2000/svg">
<path opacity="0.03" d="M-47 0.0675741H4.13903L25.3478 217.309L50.9174 76.7761H99.4796L129.212 217.309L145.862 0.0675741H197.397L163.304 296H108.796L75.0994 140.601L43.5835 296H-10.5288L-47 0.0675741ZM415.233 296H230.895V0.0675741H415.233V51.603H289.368V115.428H403.341V166.963H289.368V244.465H415.233V296ZM75.0994 402.585L47.5477 523.693H102.849L75.0994 402.585ZM39.421 349.068H110.976L190.856 645H132.383L114.147 571.859H35.8532L18.014 645H-40.459L39.421 349.068ZM357.553 505.26C363.368 506.449 368.389 509.224 372.618 513.585C376.978 517.813 382.264 526.138 388.475 538.559L441.992 645H377.771L342.093 570.274C341.036 568.159 339.648 565.252 337.93 561.552C327.491 539.22 315.202 528.054 301.063 528.054H282.43V645H223.958V349.068H308.396C346.453 349.068 373.741 355.807 390.258 369.285C406.908 382.764 415.233 404.699 415.233 435.092C415.233 455.442 410.278 471.629 400.367 483.654C390.457 495.679 376.185 502.881 357.553 505.26ZM282.43 398.224V478.897H309.982C325.971 478.897 337.402 475.792 344.273 469.581C351.277 463.238 354.778 452.865 354.778 438.462C354.778 424.058 351.343 413.751 344.471 407.54C337.6 401.33 326.103 398.224 309.982 398.224H282.43ZM659.829 645H475.49V349.068H659.829V400.603H533.963V464.428H647.936V515.963H533.963V593.465H659.829V645ZM-47 698.068H4.13903L25.3478 915.309L50.9174 774.776H99.4796L129.212 915.309L145.862 698.068H197.397L163.304 994H108.796L75.0994 838.601L43.5835 994H-10.5288L-47 698.068ZM415.233 994H230.895V698.068H415.233V749.603H289.368V813.428H403.341V864.963H289.368V942.465H415.233V994ZM523.458 859.611V947.222H562.308C580.94 947.222 593.956 944.05 601.356 937.707C608.888 931.365 612.654 920.331 612.654 904.606C612.654 888.617 608.756 877.12 600.959 870.117C593.163 863.113 580.279 859.611 562.308 859.611H523.458ZM523.458 744.251V813.031H562.308C577.108 813.031 587.613 810.388 593.824 805.103C600.166 799.817 603.338 791.096 603.338 778.939C603.338 766.782 600.1 757.994 593.625 752.576C587.282 747.026 576.843 744.251 562.308 744.251H523.458ZM466.967 697.671H562.308C595.211 697.671 619.922 703.948 636.439 716.501C653.089 728.923 661.414 747.555 661.414 772.398C661.414 791.426 656.525 806.292 646.746 816.996C636.968 827.699 622.631 833.91 603.734 835.628C626.331 837.874 643.311 845.472 654.675 858.422C666.171 871.372 671.92 889.476 671.92 912.733C671.92 941.275 663.33 961.956 646.152 974.773C628.973 987.591 601.025 994 562.308 994H466.967V697.671Z" fill="white"/>
</svg>
