<svg width="20" height="21" viewBox="0 0 20 21" fill="none" xmlns="http://www.w3.org/2000/svg">
<g clip-path="url(#clip0)">
<path d="M14.1503 2.48926L5.96334 2.48926C3.70258 2.48926 1.86987 4.32197 1.86987 6.58273L1.86987 14.7697C1.86987 17.0304 3.70258 18.8631 5.96334 18.8631H14.1503C16.411 18.8631 18.2437 17.0304 18.2437 14.7697V6.58273C18.2437 4.32197 16.411 2.48926 14.1503 2.48926Z" stroke="white" stroke-width="1.63739" stroke-linecap="round" stroke-linejoin="round"/>
<path d="M13.332 10.1601C13.433 10.8415 13.3167 11.5374 12.9994 12.1488C12.6822 12.7602 12.1802 13.256 11.565 13.5656C10.9497 13.8753 10.2524 13.9831 9.57239 13.8737C8.89233 13.7643 8.26409 13.4432 7.77703 12.9561C7.28998 12.4691 6.9689 11.8408 6.85947 11.1608C6.75004 10.4807 6.85783 9.78346 7.16751 9.1682C7.47719 8.55293 7.97299 8.05098 8.58439 7.73374C9.19579 7.41649 9.89165 7.30011 10.573 7.40115C11.268 7.50421 11.9114 7.82807 12.4083 8.32489C12.9051 8.8217 13.2289 9.46514 13.332 10.1601Z" stroke="white" stroke-width="1.63739" stroke-linecap="round" stroke-linejoin="round"/>
<path d="M14.5598 6.17334H14.5673" stroke="white" stroke-width="1.63739" stroke-linecap="round" stroke-linejoin="round"/>
</g>
<defs>
<clipPath id="clip0">
<rect width="19.6487" height="19.6487" fill="white" transform="translate(0.23291 0.851562)"/>
</clipPath>
</defs>
</svg>
