<svg width="164" height="24" viewBox="0 0 164 24" fill="none" xmlns="http://www.w3.org/2000/svg">
<path d="M3.43082 1.19324C3.65692 0.96714 3.93147 0.854089 4.25447 0.854089C4.57748 0.854089 4.85203 0.96714 5.07813 1.19324C5.30424 1.41935 5.41729 1.6939 5.41729 2.0169C5.41729 2.33991 5.30424 2.61446 5.07813 2.84056C4.85203 3.06666 4.57748 3.17972 4.25447 3.17972C3.93147 3.17972 3.65692 3.06666 3.43082 2.84056C3.20471 2.61446 3.09166 2.33991 3.09166 2.0169C3.09166 1.6939 3.20471 1.41935 3.43082 1.19324ZM3.45504 18.8292V5.74759H5.05391V18.8292C5.05391 20.2828 4.67438 21.3729 3.91532 22.0997C3.15626 22.8264 2.08228 23.1252 0.693359 22.996V21.4456C1.64622 21.5425 2.34068 21.389 2.77673 20.9853C3.22894 20.5815 3.45504 19.8629 3.45504 18.8292Z" fill="white"/>
<path d="M18.8737 5.74759H20.4725V17.8602H18.8737V15.4862C17.7593 17.2627 16.1281 18.1509 13.9802 18.1509C12.2521 18.1509 10.7744 17.5372 9.54694 16.3098C8.33568 15.0824 7.73004 13.5804 7.73004 11.8039C7.73004 10.0274 8.33568 8.52543 9.54694 7.29801C10.7744 6.0706 12.2521 5.45689 13.9802 5.45689C16.1281 5.45689 17.7593 6.34515 18.8737 8.12167V5.74759ZM10.7098 15.2197C11.6303 16.1402 12.7608 16.6005 14.1013 16.6005C15.4418 16.6005 16.5723 16.1402 17.4928 15.2197C18.4134 14.283 18.8737 13.1444 18.8737 11.8039C18.8737 10.4634 18.4134 9.33293 17.4928 8.41237C16.5723 7.47566 15.4418 7.00731 14.1013 7.00731C12.7608 7.00731 11.6303 7.47566 10.7098 8.41237C9.78919 9.33293 9.32891 10.4634 9.32891 11.8039C9.32891 13.1444 9.78919 14.283 10.7098 15.2197Z" fill="white"/>
<path d="M36.7699 5.45689C38.1265 5.45689 39.2167 5.89295 40.0403 6.76506C40.8801 7.63717 41.3 8.81613 41.3 10.3019V17.8602H39.7012V10.3019C39.7012 9.25218 39.4266 8.44467 38.8775 7.87942C38.3445 7.29801 37.6339 7.00731 36.7457 7.00731C35.7444 7.00731 34.9288 7.34646 34.2989 8.02477C33.6852 8.68693 33.3784 9.72861 33.3784 11.1498V17.8602H31.7795V10.3019C31.7795 9.23603 31.5211 8.42045 31.0043 7.85519C30.5036 7.28994 29.8172 7.00731 28.9451 7.00731C27.9761 7.00731 27.1525 7.34646 26.4742 8.02477C25.7959 8.70308 25.4567 9.74476 25.4567 11.1498V17.8602H23.8578V5.74759H25.4567V7.51604C26.3288 6.14327 27.5643 5.45689 29.1632 5.45689C30.9074 5.45689 32.1348 6.19172 32.8454 7.66139C33.7175 6.19172 35.0257 5.45689 36.7699 5.45689Z" fill="white"/>
<path d="M54.8094 5.74759H56.4083V17.8602H54.8094V15.4862C53.695 17.2627 52.0639 18.1509 49.9159 18.1509C48.1878 18.1509 46.7101 17.5372 45.4827 16.3098C44.2714 15.0824 43.6658 13.5804 43.6658 11.8039C43.6658 10.0274 44.2714 8.52543 45.4827 7.29801C46.7101 6.0706 48.1878 5.45689 49.9159 5.45689C52.0639 5.45689 53.695 6.34515 54.8094 8.12167V5.74759ZM46.6455 15.2197C47.566 16.1402 48.6966 16.6005 50.037 16.6005C51.3775 16.6005 52.508 16.1402 53.4286 15.2197C54.3491 14.283 54.8094 13.1444 54.8094 11.8039C54.8094 10.4634 54.3491 9.33293 53.4286 8.41237C52.508 7.47566 51.3775 7.00731 50.037 7.00731C48.6966 7.00731 47.566 7.47566 46.6455 8.41237C45.7249 9.33293 45.2646 10.4634 45.2646 11.8039C45.2646 13.1444 45.7249 14.283 46.6455 15.2197Z" fill="white"/>
<path d="M59.7936 17.8602V0.175781H61.3924V17.8602H59.7936Z" fill="white"/>
<path d="M74.9357 16.334C73.7083 17.5453 72.2063 18.1509 70.4298 18.1509C68.6533 18.1509 67.1432 17.5453 65.8997 16.334C64.6722 15.1066 64.0585 13.5966 64.0585 11.8039C64.0585 10.0112 64.6722 8.50928 65.8997 7.29801C67.1432 6.0706 68.6533 5.45689 70.4298 5.45689C72.2063 5.45689 73.7083 6.0706 74.9357 7.29801C76.1792 8.50928 76.801 10.0112 76.801 11.8039C76.801 13.5966 76.1792 15.1066 74.9357 16.334ZM67.0382 15.2197C67.9588 16.1402 69.0893 16.6005 70.4298 16.6005C71.7702 16.6005 72.9008 16.1402 73.8213 15.2197C74.7419 14.283 75.2022 13.1444 75.2022 11.8039C75.2022 10.4634 74.7419 9.33293 73.8213 8.41237C72.9008 7.47566 71.7702 7.00731 70.4298 7.00731C69.0893 7.00731 67.9588 7.47566 67.0382 8.41237C66.1177 9.33293 65.6574 10.4634 65.6574 11.8039C65.6574 13.1444 66.1177 14.283 67.0382 15.2197Z" fill="white"/>
<path d="M87.7245 5.74759H89.4203L84.4541 17.8602H82.5161L77.5499 5.74759H79.2457L83.4851 16.1887L87.7245 5.74759Z" fill="white"/>
<path d="M107.826 0.902539H109.425V17.8602H107.826V15.4862C106.711 17.2627 105.08 18.1509 102.932 18.1509C101.204 18.1509 99.7265 17.5372 98.4991 16.3098C97.2878 15.0824 96.6822 13.5804 96.6822 11.8039C96.6822 10.0274 97.2878 8.52543 98.4991 7.29801C99.7265 6.0706 101.204 5.45689 102.932 5.45689C105.08 5.45689 106.711 6.34515 107.826 8.12167V0.902539ZM99.6619 15.2197C100.582 16.1402 101.713 16.6005 103.053 16.6005C104.394 16.6005 105.524 16.1402 106.445 15.2197C107.366 14.283 107.826 13.1444 107.826 11.8039C107.826 10.4634 107.366 9.33293 106.445 8.41237C105.524 7.47566 104.394 7.00731 103.053 7.00731C101.713 7.00731 100.582 7.47566 99.6619 8.41237C98.7414 9.33293 98.2811 10.4634 98.2811 11.8039C98.2811 13.1444 98.7414 14.283 99.6619 15.2197Z" fill="white"/>
<path d="M114.433 2.84056C114.207 3.06666 113.932 3.17972 113.609 3.17972C113.286 3.17972 113.012 3.06666 112.786 2.84056C112.56 2.61446 112.447 2.33991 112.447 2.0169C112.447 1.6939 112.56 1.41935 112.786 1.19324C113.012 0.96714 113.286 0.854089 113.609 0.854089C113.932 0.854089 114.207 0.96714 114.433 1.19324C114.659 1.41935 114.772 1.6939 114.772 2.0169C114.772 2.33991 114.659 2.61446 114.433 2.84056ZM112.81 17.8602V5.74759H114.409V17.8602H112.81Z" fill="white"/>
<path d="M128.219 5.74759H129.817V17.3757C129.817 19.1199 129.22 20.4927 128.025 21.494C126.83 22.4953 125.4 22.996 123.737 22.996C120.895 22.996 118.981 22.0108 117.996 20.0405L119.401 19.2411C120.127 20.7107 121.573 21.4456 123.737 21.4456C125.126 21.4456 126.216 21.0741 127.007 20.3312C127.815 19.6045 128.219 18.6193 128.219 17.3757V15.4862C127.104 17.2627 125.473 18.1509 123.325 18.1509C121.597 18.1509 120.119 17.5372 118.892 16.3098C117.681 15.0824 117.075 13.5804 117.075 11.8039C117.075 10.0274 117.681 8.52543 118.892 7.29801C120.119 6.0706 121.597 5.45689 123.325 5.45689C125.473 5.45689 127.104 6.34515 128.219 8.12167V5.74759ZM120.055 15.2197C120.975 16.1402 122.106 16.6005 123.446 16.6005C124.787 16.6005 125.917 16.1402 126.838 15.2197C127.758 14.283 128.219 13.1444 128.219 11.8039C128.219 10.4634 127.758 9.33293 126.838 8.41237C125.917 7.47566 124.787 7.00731 123.446 7.00731C122.106 7.00731 120.975 7.47566 120.055 8.41237C119.134 9.33293 118.674 10.4634 118.674 11.8039C118.674 13.1444 119.134 14.283 120.055 15.2197Z" fill="white"/>
<path d="M134.826 2.84056C134.6 3.06666 134.325 3.17972 134.002 3.17972C133.679 3.17972 133.405 3.06666 133.179 2.84056C132.952 2.61446 132.839 2.33991 132.839 2.0169C132.839 1.6939 132.952 1.41935 133.179 1.19324C133.405 0.96714 133.679 0.854089 134.002 0.854089C134.325 0.854089 134.6 0.96714 134.826 1.19324C135.052 1.41935 135.165 1.6939 135.165 2.0169C135.165 2.33991 135.052 2.61446 134.826 2.84056ZM133.203 17.8602V5.74759H134.802V17.8602H133.203Z" fill="white"/>
<path d="M144.614 7.29801H141.126V14.6383C141.126 15.3004 141.255 15.7769 141.513 16.0676C141.772 16.3421 142.159 16.4875 142.676 16.5036C143.193 16.5036 143.839 16.4875 144.614 16.4552V17.8602C142.918 18.1186 141.643 17.9975 140.787 17.4969C139.947 16.9962 139.527 16.0433 139.527 14.6383V7.29801H136.983V5.74759H139.527V2.84056L141.126 2.35606V5.74759H144.614V7.29801Z" fill="white"/>
<path d="M156.962 5.74759H158.561V17.8602H156.962V15.4862C155.848 17.2627 154.217 18.1509 152.069 18.1509C150.341 18.1509 148.863 17.5372 147.636 16.3098C146.424 15.0824 145.819 13.5804 145.819 11.8039C145.819 10.0274 146.424 8.52543 147.636 7.29801C148.863 6.0706 150.341 5.45689 152.069 5.45689C154.217 5.45689 155.848 6.34515 156.962 8.12167V5.74759ZM148.799 15.2197C149.719 16.1402 150.85 16.6005 152.19 16.6005C153.531 16.6005 154.661 16.1402 155.582 15.2197C156.502 14.283 156.962 13.1444 156.962 11.8039C156.962 10.4634 156.502 9.33293 155.582 8.41237C154.661 7.47566 153.531 7.00731 152.19 7.00731C150.85 7.00731 149.719 7.47566 148.799 8.41237C147.878 9.33293 147.418 10.4634 147.418 11.8039C147.418 13.1444 147.878 14.283 148.799 15.2197Z" fill="white"/>
<path d="M161.947 17.8602V0.175781H163.545V17.8602H161.947Z" fill="white"/>
</svg>
