<svg width="247" height="36" viewBox="0 0 247 36" fill="none" xmlns="http://www.w3.org/2000/svg">
<path d="M0 7.49526H3.12876L6.48099 23.0531L9.23155 13.1167H11.9305L14.7155 23.0531L18.0677 7.49526H21.1965L16.6924 26.7491H13.6668L10.5896 16.1939L7.52964 26.7491H4.50403L0 7.49526Z" fill="white"/>
<path d="M40.33 16.3314V17.8786H26.6288V17.9818C26.6288 20.079 27.1732 21.7007 28.2619 22.8468C29.3622 23.9929 30.9094 24.5659 32.9035 24.5659C33.912 24.5659 34.9664 24.4054 36.0666 24.0845C37.1669 23.7636 38.3416 23.2766 39.5908 22.6233V25.7693C38.3874 26.2621 37.2242 26.6288 36.101 26.8695C34.9893 27.1216 33.912 27.2477 32.8691 27.2477C29.8779 27.2477 27.5399 26.3537 25.8552 24.5659C24.1705 22.7666 23.3281 20.2911 23.3281 17.1394C23.3281 14.0679 24.1533 11.6154 25.8036 9.78166C27.454 7.94796 29.6544 7.03111 32.405 7.03111C34.8575 7.03111 36.7887 7.862 38.1983 9.5238C39.6194 11.1856 40.33 13.4548 40.33 16.3314ZM37.1669 15.4031C37.121 13.5465 36.6798 12.1368 35.8432 11.1741C35.018 10.2 33.8261 9.7129 32.2674 9.7129C30.7432 9.7129 29.4882 10.2172 28.5026 11.2257C27.517 12.2342 26.9325 13.6324 26.7491 15.4203L37.1669 15.4031Z" fill="white"/>
<path d="M63.6238 33.6771V35.0524H42.4273V33.6771H63.6238Z" fill="white"/>
<path d="M74.6604 17.0706C72.8152 17.0706 71.4227 17.3973 70.483 18.0505C69.5546 18.6923 69.0905 19.655 69.0905 20.9386C69.0905 22.0961 69.44 22.9958 70.1391 23.6376C70.8382 24.2794 71.8067 24.6003 73.0444 24.6003C74.7864 24.6003 76.156 23.9986 77.1531 22.7952C78.1501 21.5804 78.6544 19.9071 78.6659 17.7755V17.0706H74.6604ZM81.8462 15.7641V26.7491H78.6659V23.8954C77.9897 25.0415 77.1359 25.8896 76.1044 26.4397C75.0844 26.9784 73.8409 27.2477 72.374 27.2477C70.4142 27.2477 68.8498 26.6976 67.6808 25.5973C66.5118 24.4857 65.9274 23.0015 65.9274 21.1449C65.9274 19.0017 66.6436 17.3743 68.0762 16.2627C69.5203 15.151 71.6348 14.5951 74.4197 14.5951H78.6659V14.0966C78.6544 12.5609 78.2647 11.4492 77.4969 10.7615C76.729 10.0624 75.5027 9.7129 73.818 9.7129C72.7407 9.7129 71.6519 9.86761 70.5517 10.1771C69.4515 10.4865 68.3799 10.9392 67.337 11.5351V8.372C68.506 7.92503 69.6234 7.59268 70.6892 7.37492C71.7665 7.14571 72.8095 7.03111 73.818 7.03111C75.411 7.03111 76.7691 7.26605 77.8923 7.73593C79.0269 8.20582 79.9437 8.91065 80.6428 9.85042C81.0783 10.4235 81.3878 11.134 81.5711 11.9821C81.7545 12.8187 81.8462 14.0794 81.8462 15.7641Z" fill="white"/>
<path d="M104.71 11.4664C104.034 10.9392 103.346 10.5553 102.647 10.3146C101.948 10.0739 101.18 9.95357 100.344 9.95357C98.3724 9.95357 96.8654 10.5724 95.8224 11.8102C94.7795 13.0479 94.2581 14.8358 94.2581 17.1738V26.7491H91.0777V7.49526H94.2581V11.2601C94.7852 9.89627 95.5932 8.85335 96.682 8.13133C97.7822 7.39785 99.083 7.03111 100.584 7.03111C101.364 7.03111 102.091 7.12852 102.768 7.32335C103.444 7.51818 104.091 7.82189 104.71 8.23447V11.4664Z" fill="white"/>
<path d="M125.185 16.3314V17.8786H111.483V17.9818C111.483 20.079 112.028 21.7007 113.117 22.8468C114.217 23.9929 115.764 24.5659 117.758 24.5659C118.767 24.5659 119.821 24.4054 120.921 24.0845C122.021 23.7636 123.196 23.2766 124.445 22.6233V25.7693C123.242 26.2621 122.079 26.6288 120.956 26.8695C119.844 27.1216 118.767 27.2477 117.724 27.2477C114.733 27.2477 112.395 26.3537 110.71 24.5659C109.025 22.7666 108.183 20.2911 108.183 17.1394C108.183 14.0679 109.008 11.6154 110.658 9.78166C112.309 7.94796 114.509 7.03111 117.26 7.03111C119.712 7.03111 121.643 7.862 123.053 9.5238C124.474 11.1856 125.185 13.4548 125.185 16.3314ZM122.021 15.4031C121.976 13.5465 121.534 12.1368 120.698 11.1741C119.873 10.2 118.681 9.7129 117.122 9.7129C115.598 9.7129 114.343 10.2172 113.357 11.2257C112.372 12.2342 111.787 13.6324 111.604 15.4203L122.021 15.4031Z" fill="white"/>
<path d="M133.402 15.6954H142.358V18.5147H133.402V15.6954Z" fill="white"/>
<path d="M156.455 0H163.744V2.45831H159.618V28.9324H163.744V31.3907H156.455V0Z" fill="white"/>
<path d="M169.709 7.49526H172.838L176.19 23.0531L178.941 13.1167H181.64L184.425 23.0531L187.777 7.49526H190.906L186.402 26.7491H183.376L180.299 16.1939L177.239 26.7491H174.213L169.709 7.49526Z" fill="white"/>
<path d="M210.039 16.3314V17.8786H196.338V17.9818C196.338 20.079 196.882 21.7007 197.971 22.8468C199.071 23.9929 200.619 24.5659 202.613 24.5659C203.621 24.5659 204.676 24.4054 205.776 24.0845C206.876 23.7636 208.051 23.2766 209.3 22.6233V25.7693C208.097 26.2621 206.933 26.6288 205.81 26.8695C204.699 27.1216 203.621 27.2477 202.578 27.2477C199.587 27.2477 197.249 26.3537 195.564 24.5659C193.88 22.7666 193.037 20.2911 193.037 17.1394C193.037 14.0679 193.863 11.6154 195.513 9.78166C197.163 7.94796 199.364 7.03111 202.114 7.03111C204.567 7.03111 206.498 7.862 207.908 9.5238C209.329 11.1856 210.039 13.4548 210.039 16.3314ZM206.876 15.4031C206.83 13.5465 206.389 12.1368 205.552 11.1741C204.727 10.2 203.535 9.7129 201.977 9.7129C200.452 9.7129 199.197 10.2172 198.212 11.2257C197.226 12.2342 196.642 13.6324 196.458 15.4203L206.876 15.4031Z" fill="white"/>
<path d="M227.918 17.1394C227.918 14.6868 227.528 12.8359 226.749 11.5867C225.97 10.3375 224.818 9.7129 223.293 9.7129C221.758 9.7129 220.594 10.3432 219.804 11.6039C219.013 12.8531 218.618 14.6983 218.618 17.1394C218.618 19.569 219.013 21.4142 219.804 22.6749C220.594 23.9356 221.758 24.5659 223.293 24.5659C224.818 24.5659 225.97 23.9413 226.749 22.6921C227.528 21.4429 227.918 19.592 227.918 17.1394ZM218.618 9.95357C219.122 9.0138 219.815 8.29178 220.698 7.78751C221.592 7.28324 222.623 7.03111 223.792 7.03111C226.107 7.03111 227.929 7.92504 229.259 9.7129C230.588 11.4893 231.253 13.9419 231.253 17.0706C231.253 20.2452 230.582 22.7379 229.242 24.5487C227.912 26.348 226.084 27.2477 223.758 27.2477C222.612 27.2477 221.597 27.0013 220.715 26.5085C219.844 26.0042 219.145 25.2764 218.618 24.3252V26.7491H215.454V0H218.618V9.95357Z" fill="white"/>
<path d="M246.587 0V31.3907H239.298V28.9324H243.424V2.45831H239.298V0H246.587Z" fill="white"/>
</svg>
