<svg width="38" height="38" viewBox="0 0 38 38" fill="none" xmlns="http://www.w3.org/2000/svg">
<g clip-path="url(#clip0)">
<path d="M23.4973 8.17574C25.0143 8.47173 26.4086 9.21369 27.5015 10.3066C28.5945 11.3996 29.3365 12.7939 29.6325 14.3109L23.4973 8.17574ZM23.4973 1.96289C26.6492 2.31304 29.5883 3.72451 31.8322 5.96553C34.076 8.20656 35.4912 11.1439 35.8453 14.2954L23.4973 1.96289ZM34.2921 26.69V31.3497C34.2938 31.7822 34.2052 32.2104 34.0319 32.6068C33.8586 33.0031 33.6045 33.3589 33.2857 33.6513C32.967 33.9438 32.5907 34.1664 32.1809 34.305C31.7711 34.4436 31.3369 34.495 30.9061 34.4561C26.1266 33.9368 21.5356 32.3036 17.5019 29.6877C13.749 27.303 10.5673 24.1213 8.18258 20.3685C5.55762 16.3164 3.92405 11.7031 3.41422 6.90211C3.3754 6.47259 3.42645 6.0397 3.5641 5.631C3.70176 5.22229 3.92301 4.84672 4.21376 4.52821C4.50451 4.2097 4.8584 3.95521 5.2529 3.78096C5.64739 3.60671 6.07385 3.51651 6.50511 3.5161H11.1648C11.9185 3.50868 12.6493 3.77561 13.2208 4.26713C13.7924 4.75865 14.1657 5.44123 14.2712 6.18763C14.4678 7.67882 14.8326 9.14297 15.3584 10.5522C15.5674 11.1081 15.6126 11.7123 15.4888 12.2931C15.3649 12.874 15.0771 13.4071 14.6595 13.8294L12.6869 15.802C14.898 19.6906 18.1176 22.9102 22.0062 25.1213L23.9788 23.1487C24.4011 22.7311 24.9342 22.4433 25.5151 22.3194C26.0959 22.1956 26.7001 22.2408 27.256 22.4498C28.6652 22.9756 30.1294 23.3403 31.6206 23.537C32.3751 23.6435 33.0641 24.0235 33.5567 24.6048C34.0493 25.1862 34.311 25.9283 34.2921 26.69Z" stroke="white" stroke-width="3.10643" stroke-linecap="round" stroke-linejoin="round"/>
</g>
<defs>
<clipPath id="clip0">
<rect width="37.2771" height="37.2771" fill="white" transform="translate(0.120361 0.409668)"/>
</clipPath>
</defs>
</svg>
