<svg width="38" height="38" viewBox="0 0 38 38" fill="none" xmlns="http://www.w3.org/2000/svg">
<g clip-path="url(#clip0)">
<path d="M23.4973 7.78798C25.0143 8.08397 26.4086 8.82593 27.5015 9.91889C28.5945 11.0119 29.3365 12.4061 29.6325 13.9232L23.4973 7.78798ZM23.4973 1.57513C26.6492 1.92528 29.5883 3.33675 31.8322 5.57777C34.076 7.8188 35.4912 10.7562 35.8453 13.9076L23.4973 1.57513ZM34.2921 26.3023V30.9619C34.2938 31.3945 34.2052 31.8227 34.0319 32.219C33.8586 32.6154 33.6045 32.9711 33.2857 33.2636C32.967 33.556 32.5907 33.7786 32.1809 33.9172C31.7711 34.0558 31.3369 34.1073 30.9061 34.0683C26.1266 33.549 21.5356 31.9158 17.5019 29.3C13.749 26.9153 10.5673 23.7335 8.18258 19.9807C5.55762 15.9287 3.92405 11.3153 3.41422 6.51435C3.3754 6.08484 3.42645 5.65195 3.5641 5.24324C3.70176 4.83453 3.92301 4.45897 4.21376 4.14045C4.50451 3.82194 4.8584 3.56745 5.2529 3.3932C5.64739 3.21895 6.07385 3.12875 6.50511 3.12835H11.1648C11.9185 3.12093 12.6493 3.38786 13.2208 3.87938C13.7924 4.3709 14.1657 5.05347 14.2712 5.79987C14.4678 7.29106 14.8326 8.75521 15.3584 10.1644C15.5674 10.7203 15.6126 11.3245 15.4888 11.9054C15.3649 12.4862 15.0771 13.0194 14.6595 13.4417L12.6869 15.4143C14.898 19.3028 18.1176 22.5225 22.0062 24.7335L23.9788 22.761C24.4011 22.3434 24.9342 22.0556 25.5151 21.9317C26.0959 21.8078 26.7001 21.853 27.256 22.062C28.6652 22.5878 30.1294 22.9526 31.6206 23.1493C32.3751 23.2557 33.0641 23.6357 33.5567 24.2171C34.0493 24.7984 34.311 25.5405 34.2921 26.3023Z" stroke="white" stroke-width="3.10643" stroke-linecap="round" stroke-linejoin="round"/>
</g>
<defs>
<clipPath id="clip0">
<rect width="37.2771" height="37.2771" fill="white" transform="translate(0.120361 0.0220947)"/>
</clipPath>
</defs>
</svg>
