<svg width="21" height="20" viewBox="0 0 21 20" fill="none" xmlns="http://www.w3.org/2000/svg">
<g clip-path="url(#clip0)">
<path d="M18.9073 14.1676V16.6237C18.9082 16.8517 18.8615 17.0774 18.7702 17.2863C18.6788 17.4952 18.5448 17.6828 18.3768 17.8369C18.2088 17.991 18.0105 18.1084 17.7945 18.1814C17.5785 18.2545 17.3496 18.2816 17.1225 18.2611C14.6033 17.9874 12.1833 17.1265 10.0572 15.7477C8.07909 14.4907 6.40201 12.8136 5.14504 10.8355C3.76142 8.69974 2.90038 6.26805 2.63165 3.73747C2.61119 3.51107 2.63809 3.2829 2.71065 3.06747C2.78321 2.85204 2.89983 2.65408 3.05308 2.48619C3.20634 2.31831 3.39287 2.18417 3.60081 2.09232C3.80874 2.00047 4.03353 1.95293 4.26085 1.95272H6.71693C7.11424 1.94881 7.49943 2.0895 7.80068 2.34858C8.10194 2.60766 8.29871 2.96744 8.35431 3.36087C8.45798 4.14687 8.65023 4.91862 8.9274 5.6614C9.03755 5.95443 9.06139 6.27289 8.99609 6.57906C8.9308 6.88522 8.7791 7.16625 8.55899 7.38884L7.51925 8.42858C8.6847 10.4782 10.3818 12.1753 12.4314 13.3407L13.4712 12.301C13.6937 12.0809 13.9748 11.9292 14.2809 11.8639C14.5871 11.7986 14.9056 11.8224 15.1986 11.9326C15.9414 12.2098 16.7131 12.402 17.4991 12.5057C17.8968 12.5618 18.26 12.7621 18.5197 13.0685C18.7793 13.375 18.9172 13.7661 18.9073 14.1676Z" stroke="white" stroke-width="1.63739" stroke-linecap="round" stroke-linejoin="round"/>
</g>
<defs>
<clipPath id="clip0">
<rect width="19.6487" height="19.6487" fill="white" transform="translate(0.895996 0.314941)"/>
</clipPath>
</defs>
</svg>
