<svg width="95" height="31" viewBox="0 0 95 31" fill="none" xmlns="http://www.w3.org/2000/svg">
<path d="M14.6132 10.7697L11.7955 10.8821C11.6076 10.0579 11.1192 9.43038 10.3302 8.99954C9.56001 8.56869 8.70528 8.36264 7.76601 8.38137C6.13169 8.41883 4.93883 8.91524 4.18742 9.87059C3.81171 10.3576 3.65204 10.9664 3.7084 11.697C3.72718 12.0904 3.83989 12.4276 4.04653 12.7085C4.25317 12.9895 4.47859 13.2143 4.7228 13.3829C4.96701 13.5515 5.31454 13.692 5.76538 13.8044C6.21623 13.9168 6.59193 13.9917 6.8925 14.0292C7.21185 14.0666 7.64391 14.1135 8.18868 14.1697C8.99645 14.2633 9.7009 14.3851 10.302 14.535C10.9219 14.6848 11.5794 14.9096 12.2745 15.2093C12.9883 15.4903 13.5707 15.9024 14.0215 16.4457C14.4911 16.9702 14.8199 17.6071 15.0077 18.3564C15.1017 18.8247 15.1486 19.2555 15.1486 19.6489C15.1486 21.4472 14.4066 22.899 12.9226 24.0042C11.4385 25.0907 9.73847 25.6339 7.82237 25.6339C6.77039 25.6339 5.7372 25.4466 4.7228 25.0719C3.7084 24.6785 2.81609 24.0697 2.0459 23.2455C1.2757 22.4026 0.834249 21.4285 0.721537 20.3233L0.693359 19.7894L3.56751 19.7332L3.59568 20.1547V20.0423C3.68961 20.904 4.16863 21.5877 5.03276 22.0935C5.89688 22.5805 6.83614 22.824 7.85055 22.824C8.99645 22.824 10.0202 22.5337 10.9219 21.953C11.8236 21.3535 12.2745 20.5762 12.2745 19.6208C12.2745 19.4335 12.2463 19.2087 12.1899 18.9464C12.1148 18.5905 11.9457 18.2908 11.6827 18.0473C11.4197 17.8038 11.0534 17.6164 10.5838 17.4853C10.133 17.3542 9.71968 17.2605 9.34398 17.2043C8.96827 17.1294 8.47046 17.0638 7.85055 17.0076C7.11792 16.9327 6.47922 16.8484 5.93445 16.7547C5.40846 16.6611 4.81673 16.5019 4.15924 16.2771C3.52054 16.0335 2.98516 15.7432 2.5531 15.406C2.12104 15.0501 1.74533 14.5818 1.42598 14.0011C1.10664 13.4016 0.918783 12.7085 0.862427 11.9218V11.9499C0.749715 10.545 1.10664 9.29925 1.93319 8.21278C2.57189 7.38855 3.42662 6.75165 4.49738 6.30207C5.58692 5.83376 6.72343 5.59961 7.9069 5.59961C9.57879 5.59961 11.0534 6.03982 12.3308 6.92024C13.6082 7.80066 14.369 9.08383 14.6132 10.7697Z" fill="white"/>
<path d="M20.7155 22.6273H24.9422C27.1025 22.6273 28.7838 21.9436 29.9861 20.5762C31.2071 19.19 31.8176 17.5509 31.8176 15.6589C31.8176 13.7669 31.2071 12.1278 29.9861 10.7416C28.7838 9.35545 27.1025 8.66235 24.9422 8.66235H20.7155V22.6273ZM17.8696 5.8244H24.9422C26.5014 5.8244 27.9103 6.10538 29.1689 6.66736C30.4275 7.22933 31.4419 7.97862 32.2121 8.91524C33.0011 9.83313 33.6022 10.8728 34.0155 12.0342C34.4288 13.1956 34.6354 14.4038 34.6354 15.6589C34.6354 16.914 34.4288 18.1222 34.0155 19.2836C33.6022 20.4263 33.0011 21.4659 32.2121 22.4026C31.4419 23.3392 30.4275 24.0885 29.1689 24.6504C27.9103 25.1937 26.5014 25.4653 24.9422 25.4653H17.8696V5.8244Z" fill="white"/>
<path d="M51.1289 10.7697L48.3111 10.8821C48.1233 10.0579 47.6349 9.43038 46.8459 8.99954C46.0757 8.56869 45.221 8.36264 44.2817 8.38137C42.6474 8.41883 41.4545 8.91524 40.7031 9.87059C40.3274 10.3576 40.1677 10.9664 40.2241 11.697C40.2429 12.0904 40.3556 12.4276 40.5622 12.7085C40.7689 12.9895 40.9943 13.2143 41.2385 13.3829C41.4827 13.5515 41.8302 13.692 42.2811 13.8044C42.7319 13.9168 43.1076 13.9917 43.4082 14.0292C43.7275 14.0666 44.1596 14.1135 44.7044 14.1697C45.5121 14.2633 46.2166 14.3851 46.8177 14.535C47.4376 14.6848 48.0951 14.9096 48.7902 15.2093C49.504 15.4903 50.0864 15.9024 50.5372 16.4457C51.0068 16.9702 51.3356 17.6071 51.5234 18.3564C51.6174 18.8247 51.6643 19.2555 51.6643 19.6489C51.6643 21.4472 50.9223 22.899 49.4383 24.0042C47.9542 25.0907 46.2542 25.6339 44.3381 25.6339C43.2861 25.6339 42.2529 25.4466 41.2385 25.0719C40.2241 24.6785 39.3318 24.0697 38.5616 23.2455C37.7914 22.4026 37.3499 21.4285 37.2372 20.3233L37.2091 19.7894L40.0832 19.7332L40.1114 20.1547V20.0423C40.2053 20.904 40.6843 21.5877 41.5485 22.0935C42.4126 22.5805 43.3518 22.824 44.3662 22.824C45.5121 22.824 46.5359 22.5337 47.4376 21.953C48.3393 21.3535 48.7902 20.5762 48.7902 19.6208C48.7902 19.4335 48.762 19.2087 48.7056 18.9464C48.6305 18.5905 48.4614 18.2908 48.1984 18.0473C47.9354 17.8038 47.5691 17.6164 47.0995 17.4853C46.6487 17.3542 46.2354 17.2605 45.8597 17.2043C45.484 17.1294 44.9862 17.0638 44.3662 17.0076C43.6336 16.9327 42.9949 16.8484 42.4501 16.7547C41.9242 16.6611 41.3324 16.5019 40.6749 16.2771C40.0362 16.0335 39.5009 15.7432 39.0688 15.406C38.6367 15.0501 38.261 14.5818 37.9417 14.0011C37.6223 13.4016 37.4345 12.7085 37.3781 11.9218V11.9499C37.2654 10.545 37.6223 9.29925 38.4489 8.21278C39.0876 7.38855 39.9423 6.75165 41.0131 6.30207C42.1026 5.83376 43.2391 5.59961 44.4226 5.59961C46.0945 5.59961 47.5691 6.03982 48.8465 6.92024C50.1239 7.80066 50.8847 9.08383 51.1289 10.7697Z" fill="white"/>
<path d="M66.4327 6.70753C66.4327 6.90574 66.5157 7.0611 66.6818 7.1736C66.8479 7.2861 67.0514 7.37181 67.2925 7.43074C67.5336 7.48431 67.772 7.54592 68.0077 7.61556C68.2488 7.6852 68.4523 7.80306 68.6184 7.96913C68.7845 8.12984 68.8675 8.34681 68.8675 8.62002C68.8675 8.95216 68.7336 9.22538 68.4657 9.43966C68.2032 9.65395 67.8577 9.76109 67.4291 9.76109C67.0434 9.76109 66.7166 9.68073 66.4488 9.52002C66.1863 9.35395 66.0041 9.13698 65.9023 8.86913L66.2479 8.66824C66.3229 8.88788 66.4622 9.06198 66.6657 9.19056C66.8747 9.31377 67.1291 9.37538 67.4291 9.37538C67.7291 9.37538 67.9756 9.31109 68.1684 9.18252C68.3666 9.04859 68.4657 8.86109 68.4657 8.62002C68.4657 8.42181 68.3827 8.26377 68.2166 8.14592C68.0506 8.02806 67.847 7.94234 67.6059 7.88877C67.3648 7.82984 67.1238 7.76556 66.8827 7.69592C66.647 7.62627 66.4461 7.5111 66.28 7.35038C66.114 7.18967 66.0309 6.97538 66.0309 6.70753C66.0309 6.3861 66.1568 6.11556 66.4086 5.89592C66.6657 5.67628 66.9952 5.56646 67.397 5.56646C67.7184 5.56646 67.997 5.63878 68.2327 5.78342C68.4738 5.92806 68.6506 6.1236 68.7631 6.37003L68.4256 6.56288C68.3452 6.36467 68.2113 6.21467 68.0238 6.11288C67.8363 6.00574 67.6273 5.95217 67.397 5.95217C67.1238 5.95217 66.8934 6.02181 66.7059 6.1611C66.5238 6.29503 66.4327 6.47717 66.4327 6.70753Z" fill="white"/>
<path d="M71.9694 5.56646C72.5479 5.56646 73.0381 5.77003 73.4399 6.17717C73.847 6.57895 74.0506 7.07449 74.0506 7.66377C74.0506 8.25306 73.847 8.75127 73.4399 9.15841C73.0381 9.5602 72.5479 9.76109 71.9694 9.76109C71.589 9.76109 71.2461 9.67002 70.9408 9.48788C70.6408 9.30573 70.4078 9.05663 70.2417 8.74056V11.2798H69.8399V5.65485H70.2417V6.58699C70.4078 6.27092 70.6408 6.02181 70.9408 5.83967C71.2461 5.65753 71.589 5.56646 71.9694 5.56646ZM70.7319 8.87716C71.064 9.2093 71.4685 9.37538 71.9452 9.37538C72.422 9.37538 72.8238 9.2093 73.1506 8.87716C73.4827 8.54502 73.6488 8.14056 73.6488 7.66377C73.6488 7.18699 73.4827 6.78253 73.1506 6.45038C72.8238 6.11824 72.422 5.95217 71.9452 5.95217C71.4685 5.95217 71.064 6.11824 70.7319 6.45038C70.4051 6.78253 70.2417 7.18699 70.2417 7.66377C70.2417 8.14056 70.4051 8.54502 70.7319 8.87716Z" fill="white"/>
<path d="M76.8272 5.56646C77.4165 5.56646 77.8933 5.77539 78.2575 6.19324C78.6272 6.6111 78.812 7.10663 78.812 7.67984C78.812 7.70127 78.8093 7.73342 78.804 7.77627C78.804 7.81913 78.804 7.85127 78.804 7.8727H75.1638C75.212 8.3227 75.3915 8.68699 75.7022 8.96556C76.0183 9.23877 76.4066 9.37538 76.8674 9.37538C77.1888 9.37538 77.47 9.30841 77.7111 9.17448C77.9522 9.04056 78.1343 8.86377 78.2575 8.64413L78.6111 8.85306C78.445 9.13163 78.2093 9.35395 77.904 9.52002C77.5986 9.68073 77.2504 9.76109 76.8593 9.76109C76.2433 9.76109 75.737 9.56555 75.3406 9.17448C74.9442 8.77806 74.7459 8.27449 74.7459 7.66377C74.7459 7.06378 74.9388 6.56556 75.3245 6.16913C75.7156 5.76735 76.2165 5.56646 76.8272 5.56646ZM76.8272 5.95217C76.3718 5.95217 75.9915 6.09413 75.6861 6.37806C75.3808 6.66199 75.2067 7.02895 75.1638 7.47895H78.3941C78.3513 7.00217 78.1799 6.62985 77.8799 6.36199C77.5852 6.08878 77.2343 5.95217 76.8272 5.95217Z" fill="white"/>
<path d="M81.5913 9.76109C80.9859 9.76109 80.4824 9.5602 80.0806 9.15841C79.6788 8.75663 79.4779 8.25841 79.4779 7.66377C79.4779 7.06913 79.6788 6.57092 80.0806 6.16913C80.4824 5.76735 80.9859 5.56646 81.5913 5.56646C81.9824 5.56646 82.3359 5.66021 82.652 5.84771C82.9681 6.02985 83.1984 6.27896 83.3431 6.59503L83.0136 6.78788C82.8957 6.53074 82.7082 6.32717 82.4511 6.17717C82.1993 6.02717 81.9127 5.95217 81.5913 5.95217C81.1091 5.95217 80.7047 6.11824 80.3779 6.45038C80.0511 6.77717 79.8877 7.18163 79.8877 7.66377C79.8877 8.14592 80.0511 8.55306 80.3779 8.8852C80.7047 9.21198 81.1091 9.37538 81.5913 9.37538C81.9127 9.37538 82.1993 9.30038 82.4511 9.15038C82.7082 9.00038 82.9038 8.79681 83.0377 8.53966L83.3752 8.74056C83.2145 9.05127 82.9734 9.30038 82.652 9.48788C82.3359 9.67002 81.9824 9.76109 81.5913 9.76109Z" fill="white"/>
<path d="M84.6814 4.59414C84.6171 4.65307 84.5421 4.68253 84.4564 4.68253C84.3707 4.68253 84.2957 4.65307 84.2314 4.59414C84.1671 4.52985 84.135 4.45217 84.135 4.3611C84.135 4.27539 84.1671 4.20307 84.2314 4.14414C84.2957 4.07985 84.3707 4.04771 84.4564 4.04771C84.5421 4.04771 84.6171 4.07985 84.6814 4.14414C84.7457 4.20307 84.7778 4.27539 84.7778 4.3611C84.7778 4.45217 84.7457 4.52985 84.6814 4.59414ZM84.2555 9.6727V5.65485H84.6573V9.6727H84.2555Z" fill="white"/>
<path d="M89.4313 5.65485H89.8411V9.6727H89.4313V8.76466C89.2599 9.07538 89.0242 9.31913 88.7242 9.49591C88.4242 9.6727 88.084 9.76109 87.7036 9.76109C87.1304 9.76109 86.6402 9.5602 86.2331 9.15841C85.8259 8.75127 85.6224 8.25306 85.6224 7.66377C85.6224 7.07449 85.8259 6.57895 86.2331 6.17717C86.6402 5.77003 87.1304 5.56646 87.7036 5.56646C88.084 5.56646 88.4242 5.65485 88.7242 5.83164C89.0242 6.00842 89.2599 6.25217 89.4313 6.56288V5.65485ZM86.5224 8.87716C86.8545 9.2093 87.259 9.37538 87.7358 9.37538C88.2125 9.37538 88.6143 9.2093 88.9411 8.87716C89.2679 8.54502 89.4313 8.14056 89.4313 7.66377C89.4313 7.18699 89.2679 6.78253 88.9411 6.45038C88.6143 6.11824 88.2125 5.95217 87.7358 5.95217C87.259 5.95217 86.8545 6.11824 86.5224 6.45038C86.1956 6.78253 86.0322 7.18699 86.0322 7.66377C86.0322 8.14056 86.1956 8.54502 86.5224 8.87716Z" fill="white"/>
<path d="M91.0748 9.6727V3.80664H91.4766V9.6727H91.0748Z" fill="white"/>
<path d="M66.4327 22.0865C66.4327 22.2848 66.5157 22.4401 66.6818 22.5526C66.8479 22.6651 67.0514 22.7508 67.2925 22.8098C67.5336 22.8633 67.772 22.9249 68.0077 22.9946C68.2488 23.0642 68.4523 23.1821 68.6184 23.3481C68.7845 23.5089 68.8675 23.7258 68.8675 23.999C68.8675 24.3312 68.7336 24.6044 68.4657 24.8187C68.2032 25.033 67.8577 25.1401 67.4291 25.1401C67.0434 25.1401 66.7166 25.0598 66.4488 24.899C66.1863 24.733 66.0041 24.516 65.9023 24.2481L66.2479 24.0473C66.3229 24.2669 66.4622 24.441 66.6657 24.5696C66.8747 24.6928 67.1291 24.7544 67.4291 24.7544C67.7291 24.7544 67.9756 24.6901 68.1684 24.5615C68.3666 24.4276 68.4657 24.2401 68.4657 23.999C68.4657 23.8008 68.3827 23.6428 68.2166 23.5249C68.0506 23.4071 67.847 23.3214 67.6059 23.2678C67.3648 23.2089 67.1238 23.1446 66.8827 23.0749C66.647 23.0053 66.4461 22.8901 66.28 22.7294C66.114 22.5687 66.0309 22.3544 66.0309 22.0865C66.0309 21.7651 66.1568 21.4946 66.4086 21.2749C66.6657 21.0553 66.9952 20.9455 67.397 20.9455C67.7184 20.9455 67.997 21.0178 68.2327 21.1624C68.4738 21.3071 68.6506 21.5026 68.7631 21.749L68.4256 21.9419C68.3452 21.7437 68.2113 21.5937 68.0238 21.4919C67.8363 21.3848 67.6273 21.3312 67.397 21.3312C67.1238 21.3312 66.8934 21.4008 66.7059 21.5401C66.5238 21.674 66.4327 21.8562 66.4327 22.0865Z" fill="white"/>
<path d="M71.5302 20.9455C72.1195 20.9455 72.5963 21.1544 72.9606 21.5723C73.3302 21.9901 73.515 22.4857 73.515 23.0589C73.515 23.0803 73.5124 23.1124 73.507 23.1553C73.507 23.1981 73.507 23.2303 73.507 23.2517H69.8668C69.915 23.7017 70.0945 24.066 70.4052 24.3446C70.7213 24.6178 71.1097 24.7544 71.5704 24.7544C71.8918 24.7544 72.1731 24.6874 72.4141 24.5535C72.6552 24.4196 72.8374 24.2428 72.9606 24.0231L73.3141 24.2321C73.1481 24.5106 72.9124 24.733 72.607 24.899C72.3016 25.0598 71.9534 25.1401 71.5624 25.1401C70.9463 25.1401 70.44 24.9446 70.0436 24.5535C69.6472 24.1571 69.449 23.6535 69.449 23.0428C69.449 22.4428 69.6418 21.9446 70.0275 21.5482C70.4186 21.1464 70.9195 20.9455 71.5302 20.9455ZM71.5302 21.3312C71.0749 21.3312 70.6945 21.4732 70.3891 21.7571C70.0838 22.041 69.9097 22.408 69.8668 22.858H73.0972C73.0543 22.3812 72.8829 22.0089 72.5829 21.741C72.2883 21.4678 71.9374 21.3312 71.5302 21.3312Z" fill="white"/>
<path d="M74.8559 21.8214C75.097 21.2589 75.5443 20.9776 76.1979 20.9776V21.3633C75.8175 21.3633 75.4988 21.4865 75.2416 21.733C74.9845 21.974 74.8559 22.3357 74.8559 22.8178V25.0517H74.4541V21.0339H74.8559V21.8214Z" fill="white"/>
<path d="M79.9615 21.0339H80.3874L78.6918 25.0517H78.2017L76.4981 21.0339H76.932L78.4427 24.6339L79.9615 21.0339Z" fill="white"/>
<path d="M81.5424 19.9732C81.4782 20.0321 81.4032 20.0615 81.3174 20.0615C81.2317 20.0615 81.1567 20.0321 81.0924 19.9732C81.0282 19.9089 80.996 19.8312 80.996 19.7401C80.996 19.6544 81.0282 19.5821 81.0924 19.5232C81.1567 19.4589 81.2317 19.4267 81.3174 19.4267C81.4032 19.4267 81.4782 19.4589 81.5424 19.5232C81.6067 19.5821 81.6389 19.6544 81.6389 19.7401C81.6389 19.8312 81.6067 19.9089 81.5424 19.9732ZM81.1165 25.0517V21.0339H81.5183V25.0517H81.1165Z" fill="white"/>
<path d="M84.5968 25.1401C83.9915 25.1401 83.4879 24.9392 83.0861 24.5374C82.6843 24.1356 82.4834 23.6374 82.4834 23.0428C82.4834 22.4482 82.6843 21.9499 83.0861 21.5482C83.4879 21.1464 83.9915 20.9455 84.5968 20.9455C84.9879 20.9455 85.3415 21.0392 85.6575 21.2267C85.9736 21.4089 86.204 21.658 86.3486 21.974L86.0191 22.1669C85.9013 21.9098 85.7138 21.7062 85.4566 21.5562C85.2049 21.4062 84.9182 21.3312 84.5968 21.3312C84.1147 21.3312 83.7102 21.4973 83.3834 21.8294C83.0566 22.1562 82.8933 22.5606 82.8933 23.0428C82.8933 23.5249 83.0566 23.9321 83.3834 24.2642C83.7102 24.591 84.1147 24.7544 84.5968 24.7544C84.9182 24.7544 85.2049 24.6794 85.4566 24.5294C85.7138 24.3794 85.9093 24.1758 86.0432 23.9187L86.3807 24.1196C86.22 24.4303 85.979 24.6794 85.6575 24.8669C85.3415 25.049 84.9879 25.1401 84.5968 25.1401Z" fill="white"/>
<path d="M89.0298 20.9455C89.6191 20.9455 90.0959 21.1544 90.4602 21.5723C90.8298 21.9901 91.0146 22.4857 91.0146 23.0589C91.0146 23.0803 91.012 23.1124 91.0066 23.1553C91.0066 23.1981 91.0066 23.2303 91.0066 23.2517H87.3664C87.4146 23.7017 87.5941 24.066 87.9048 24.3446C88.2209 24.6178 88.6093 24.7544 89.07 24.7544C89.3914 24.7544 89.6727 24.6874 89.9138 24.5535C90.1548 24.4196 90.337 24.2428 90.4602 24.0231L90.8137 24.2321C90.6477 24.5106 90.412 24.733 90.1066 24.899C89.8013 25.0598 89.453 25.1401 89.062 25.1401C88.4459 25.1401 87.9396 24.9446 87.5432 24.5535C87.1468 24.1571 86.9486 23.6535 86.9486 23.0428C86.9486 22.4428 87.1414 21.9446 87.5271 21.5482C87.9182 21.1464 88.4191 20.9455 89.0298 20.9455ZM89.0298 21.3312C88.5745 21.3312 88.1941 21.4732 87.8888 21.7571C87.5834 22.041 87.4093 22.408 87.3664 22.858H90.5968C90.5539 22.3812 90.3825 22.0089 90.0825 21.741C89.7879 21.4678 89.437 21.3312 89.0298 21.3312Z" fill="white"/>
<path d="M92.07 22.0865C92.07 22.2848 92.153 22.4401 92.3191 22.5526C92.4852 22.6651 92.6888 22.7508 92.9298 22.8098C93.1709 22.8633 93.4093 22.9249 93.645 22.9946C93.8861 23.0642 94.0897 23.1821 94.2557 23.3481C94.4218 23.5089 94.5048 23.7258 94.5048 23.999C94.5048 24.3312 94.3709 24.6044 94.103 24.8187C93.8405 25.033 93.495 25.1401 93.0664 25.1401C92.6807 25.1401 92.3539 25.0598 92.0861 24.899C91.8236 24.733 91.6414 24.516 91.5397 24.2481L91.8852 24.0473C91.9602 24.2669 92.0995 24.441 92.303 24.5696C92.512 24.6928 92.7664 24.7544 93.0664 24.7544C93.3664 24.7544 93.6129 24.6901 93.8057 24.5615C94.0039 24.4276 94.103 24.2401 94.103 23.999C94.103 23.8008 94.02 23.6428 93.8539 23.5249C93.6879 23.4071 93.4843 23.3214 93.2432 23.2678C93.0022 23.2089 92.7611 23.1446 92.52 23.0749C92.2843 23.0053 92.0834 22.8901 91.9173 22.7294C91.7513 22.5687 91.6682 22.3544 91.6682 22.0865C91.6682 21.7651 91.7941 21.4946 92.0459 21.2749C92.303 21.0553 92.6325 20.9455 93.0343 20.9455C93.3557 20.9455 93.6343 21.0178 93.87 21.1624C94.1111 21.3071 94.2879 21.5026 94.4004 21.749L94.0629 21.9419C93.9825 21.7437 93.8486 21.5937 93.6611 21.4919C93.4736 21.3848 93.2647 21.3312 93.0343 21.3312C92.7611 21.3312 92.5307 21.4008 92.3432 21.5401C92.1611 21.674 92.07 21.8562 92.07 22.0865Z" fill="white"/>
<path d="M69.8695 12.1113H70.2713V17.7363H69.8695V16.8041C69.7034 17.1202 69.4677 17.3693 69.1623 17.5515C68.8623 17.7336 68.5222 17.8247 68.1418 17.8247C67.5632 17.8247 67.0704 17.6238 66.6632 17.222C66.2615 16.8149 66.0606 16.3167 66.0606 15.7274C66.0606 15.1381 66.2615 14.6425 66.6632 14.2408C67.0704 13.8336 67.5632 13.6301 68.1418 13.6301C68.5222 13.6301 68.8623 13.7211 69.1623 13.9033C69.4677 14.0854 69.7034 14.3345 69.8695 14.6506V12.1113ZM66.9525 16.9408C67.2847 17.2729 67.6891 17.439 68.1659 17.439C68.6427 17.439 69.0445 17.2729 69.3713 16.9408C69.7034 16.6086 69.8695 16.2042 69.8695 15.7274C69.8695 15.2506 69.7034 14.8461 69.3713 14.514C69.0445 14.1818 68.6427 14.0158 68.1659 14.0158C67.6891 14.0158 67.2847 14.1818 66.9525 14.514C66.6257 14.8461 66.4624 15.2506 66.4624 15.7274C66.4624 16.2042 66.6257 16.6086 66.9525 16.9408Z" fill="white"/>
<path d="M73.313 13.6301C73.9023 13.6301 74.3791 13.839 74.7434 14.2568C75.113 14.6747 75.2978 15.1702 75.2978 15.7434C75.2978 15.7649 75.2952 15.797 75.2898 15.8399C75.2898 15.8827 75.2898 15.9149 75.2898 15.9363H71.6496C71.6979 16.3863 71.8773 16.7506 72.188 17.0291C72.5041 17.3024 72.8925 17.439 73.3532 17.439C73.6746 17.439 73.9559 17.372 74.197 17.2381C74.438 17.1041 74.6202 16.9274 74.7434 16.7077L75.097 16.9166C74.9309 17.1952 74.6952 17.4175 74.3898 17.5836C74.0845 17.7443 73.7362 17.8247 73.3452 17.8247C72.7291 17.8247 72.2229 17.6291 71.8264 17.2381C71.43 16.8417 71.2318 16.3381 71.2318 15.7274C71.2318 15.1274 71.4246 14.6292 71.8104 14.2327C72.2014 13.8309 72.7023 13.6301 73.313 13.6301ZM73.313 14.0158C72.8577 14.0158 72.4773 14.1577 72.172 14.4417C71.8666 14.7256 71.6925 15.0925 71.6496 15.5425H74.88C74.8371 15.0658 74.6657 14.6934 74.3657 14.4256C74.0711 14.1524 73.7202 14.0158 73.313 14.0158Z" fill="white"/>
<path d="M76.3532 14.7711C76.3532 14.9693 76.4363 15.1247 76.6023 15.2372C76.7684 15.3497 76.972 15.4354 77.213 15.4943C77.4541 15.5479 77.6925 15.6095 77.9282 15.6792C78.1693 15.7488 78.3729 15.8667 78.5389 16.0327C78.705 16.1934 78.788 16.4104 78.788 16.6836C78.788 17.0158 78.6541 17.289 78.3863 17.5033C78.1238 17.7175 77.7782 17.8247 77.3497 17.8247C76.9639 17.8247 76.6372 17.7443 76.3693 17.5836C76.1068 17.4175 75.9247 17.2006 75.8229 16.9327L76.1684 16.7318C76.2434 16.9515 76.3827 17.1256 76.5863 17.2541C76.7952 17.3774 77.0497 17.439 77.3497 17.439C77.6496 17.439 77.8961 17.3747 78.0889 17.2461C78.2871 17.1122 78.3863 16.9247 78.3863 16.6836C78.3863 16.4854 78.3032 16.3274 78.1371 16.2095C77.9711 16.0917 77.7675 16.0059 77.5264 15.9524C77.2854 15.8934 77.0443 15.8292 76.8032 15.7595C76.5675 15.6899 76.3666 15.5747 76.2005 15.414C76.0345 15.2533 75.9514 15.039 75.9514 14.7711C75.9514 14.4497 76.0773 14.1792 76.3291 13.9595C76.5863 13.7399 76.9157 13.6301 77.3175 13.6301C77.6389 13.6301 77.9175 13.7024 78.1532 13.847C78.3943 13.9917 78.5711 14.1872 78.6836 14.4336L78.3461 14.6265C78.2657 14.4283 78.1318 14.2783 77.9443 14.1765C77.7568 14.0693 77.5479 14.0158 77.3175 14.0158C77.0443 14.0158 76.8139 14.0854 76.6264 14.2247C76.4443 14.3586 76.3532 14.5408 76.3532 14.7711Z" fill="white"/>
<path d="M80.1471 12.6577C80.0828 12.7167 80.0078 12.7461 79.9221 12.7461C79.8364 12.7461 79.7614 12.7167 79.6971 12.6577C79.6328 12.5934 79.6006 12.5158 79.6006 12.4247C79.6006 12.339 79.6328 12.2667 79.6971 12.2077C79.7614 12.1434 79.8364 12.1113 79.9221 12.1113C80.0078 12.1113 80.0828 12.1434 80.1471 12.2077C80.2114 12.2667 80.2435 12.339 80.2435 12.4247C80.2435 12.5158 80.2114 12.5934 80.1471 12.6577ZM79.7212 17.7363V13.7184H80.123V17.7363H79.7212Z" fill="white"/>
<path d="M84.9291 13.7184H85.3309V17.5434C85.3309 18.1274 85.1407 18.5881 84.7604 18.9256C84.38 19.2631 83.9032 19.4318 83.33 19.4318C82.8693 19.4318 82.4756 19.3461 82.1488 19.1747C81.822 19.0033 81.5836 18.7675 81.4336 18.4675L81.7872 18.2666C82.0443 18.7863 82.5586 19.0461 83.33 19.0461C83.8282 19.0461 84.2193 18.9095 84.5032 18.6363C84.7872 18.3684 84.9291 18.0041 84.9291 17.5434V16.8041C84.7631 17.1202 84.5273 17.3693 84.222 17.5515C83.922 17.7336 83.5818 17.8247 83.2015 17.8247C82.6229 17.8247 82.13 17.6238 81.7229 17.222C81.3211 16.8149 81.1202 16.3167 81.1202 15.7274C81.1202 15.1381 81.3211 14.6425 81.7229 14.2408C82.13 13.8336 82.6229 13.6301 83.2015 13.6301C83.5818 13.6301 83.922 13.7211 84.222 13.9033C84.5273 14.0854 84.7631 14.3345 84.9291 14.6506V13.7184ZM82.0122 16.9408C82.3443 17.2729 82.7488 17.439 83.2256 17.439C83.7023 17.439 84.1041 17.2729 84.4309 16.9408C84.7631 16.6086 84.9291 16.2042 84.9291 15.7274C84.9291 15.2506 84.7631 14.8461 84.4309 14.514C84.1041 14.1818 83.7023 14.0158 83.2256 14.0158C82.7488 14.0158 82.3443 14.1818 82.0122 14.514C81.6854 14.8461 81.522 15.2506 81.522 15.7274C81.522 16.2042 81.6854 16.6086 82.0122 16.9408Z" fill="white"/>
<path d="M88.4121 13.6301C88.8889 13.6301 89.2666 13.7774 89.5451 14.072C89.8291 14.3613 89.971 14.7497 89.971 15.2372V17.7363H89.5612V15.2372C89.5612 14.8622 89.4567 14.5649 89.2478 14.3452C89.0442 14.1256 88.755 14.0158 88.38 14.0158C87.9675 14.0158 87.63 14.1524 87.3675 14.4256C87.105 14.6988 86.9737 15.0952 86.9737 15.6149V17.7363H86.5719V13.7184H86.9737V14.4818C87.263 13.914 87.7425 13.6301 88.4121 13.6301Z" fill="white"/>
<line x1="58.8845" y1="0.363281" x2="58.8845" y2="30.3732" stroke="white" stroke-width="0.997558"/>
</svg>
