<svg width="21" height="21" viewBox="0 0 21 21" fill="none" xmlns="http://www.w3.org/2000/svg">
<path d="M19.5081 3.04046C18.7241 3.59347 17.8561 4.01643 16.9374 4.29306C16.4443 3.72612 15.789 3.32429 15.0602 3.14192C14.3313 2.95954 13.564 3.00542 12.862 3.27334C12.16 3.54126 11.5573 4.01831 11.1353 4.63995C10.7133 5.2616 10.4924 5.99786 10.5025 6.74914V7.56784C9.06371 7.60514 7.63807 7.28605 6.35251 6.63898C5.06694 5.99192 3.96135 5.03695 3.13421 3.85915C3.13421 3.85915 -0.140562 11.2274 7.22768 14.5022C5.54161 15.6467 3.53305 16.2206 1.49683 16.1396C8.86507 20.233 17.8707 16.1396 17.8707 6.72458C17.8699 6.49654 17.848 6.26906 17.8052 6.04507C18.6408 5.22104 19.2304 4.18066 19.5081 3.04046V3.04046Z" stroke="white" stroke-width="1.63739" stroke-linecap="round" stroke-linejoin="round"/>
</svg>
